#define iconify_width 14
#define iconify_height 14
static unsigned char iconify_bits[] = {
   0xff, 0x3f, 0xff, 0x3f, 0xff, 0x3f, 0xff, 0x3f, 0xff, 0x3f, 0xff, 0x3f,
   0xff, 0x3f, 0xff, 0x3f, 0x07, 0x38, 0x03, 0x30, 0x07, 0x38, 0xff, 0x3f,
   0xff, 0x3f, 0xff, 0x3f };
