/* XPM */
static char * red_envelope_xpm[] = {
"13 10 3 1",
" 	c None",
".	c #FFFFFF",
"+	c #FF0000",
".............",
".+++++++++++.",
".++.......++.",
".+++.....+++.",
".+.++...++.+.",
".+...+++...+.",
".+....+....+.",
".+.........+.",
".+++++++++++.",
"............."};
